<?xml version="1.0" encoding="UTF-8" ?><!DOCTYPE svg PUBLIC "-//W3C//DTD SVG 1.1//EN" "http://www.w3.org/Graphics/SVG/1.1/DTD/svg11.dtd"><svg width="17px" height="17px" viewBox="0 0 100 100" version="1.1" xmlns="http://www.w3.org/2000/svg"><path stroke-width="1" stroke="black" d="M24 32 L23 33 L24 34 L30 35 L31 36 L31 37 L32 38 L33 39 L33 40 L34 41 L34 42 L35 43 L36 44 L36 45 L37 46 L37 47 L38 48 L38 49 L39 50 L40 51 L41 52 L41 53 L41 54 L42 55 L43 55 L46 54 L48 53 L50 52 L42 51 L42 50 L42 49 L41 48 L40 47 L40 46 L39 45 L38 44 L38 43 L37 42 L37 41 L36 40 L36 39 L35 38 L34 37 L34 36 L33 35 L33 34 L32 33 L32 32 Z" /><path stroke-width="1" stroke="black" d="M62 33 L61 34 L60 35 L59 36 L58 37 L56 38 L56 39 L58 40 L57 41 L56 42 L56 43 L55 44 L54 45 L53 46 L52 47 L50 48 L49 49 L47 50 L45 51 L51 51 L52 50 L53 49 L54 48 L55 47 L56 46 L57 45 L58 44 L59 43 L60 42 L62 41 L62 40 L62 39 L62 38 L62 37 L62 36 L62 35 L62 34 L62 33 Z" /><path stroke-width="1" stroke="black" d="M45 38 L45 39 L45 40 L54 40 L53 39 L54 38 Z" /><path stroke-width="1" stroke="black" d="M64 38 L64 39 L64 40 L66 41 L65 42 L65 43 L64 44 L63 45 L63 46 L62 47 L62 48 L61 49 L61 50 L60 51 L59 52 L51 53 L48 54 L46 55 L61 55 L61 54 L62 53 L62 52 L63 51 L63 50 L64 49 L65 48 L65 47 L66 46 L66 45 L67 44 L68 43 L68 42 L69 41 L69 40 L70 39 L69 38 Z" /><path stroke-width="1" stroke="black" d="M44 59 L43 60 L42 61 L42 62 L43 63 L44 64 L46 64 L47 63 L48 62 L48 61 L47 60 L46 59 Z" /><path stroke-width="1" stroke="black" d="M56 59 L55 60 L55 61 L55 62 L55 63 L56 64 L59 64 L60 63 L61 62 L61 61 L60 60 L59 59 Z" /><path stroke-width="1" stroke="black" d="M27 67 L26 68 L26 69 L25 70 L25 71 L25 72 L25 72 L29 71 L26 70 L26 69 L28 68 L27 67 Z" /><path stroke-width="1" stroke="black" d="M32 67 L31 68 L31 69 L31 70 L34 71 L31 72 L34 72 L37 71 L34 70 L31 69 L32 68 L34 67 Z" /><path stroke-width="1" stroke="black" d="M36 67 L36 68 L36 69 L36 70 L40 71 L40 72 L41 72 L41 71 L41 70 L37 69 L37 68 L37 67 Z" /><path stroke-width="1" stroke="black" d="M40 67 L40 68 L40 69 L41 69 L41 68 L41 67 Z" /><path stroke-width="1" stroke="black" d="M43 67 L43 68 L43 69 L43 70 L43 71 L43 72 L46 72 L43 71 L45 70 L43 69 L46 68 L48 67 Z" /><path stroke-width="1" stroke="black" d="M51 67 L51 68 L50 69 L48 70 L49 71 L49 72 L50 72 L50 71 L50 70 L52 69 L52 68 L51 67 Z" /><path stroke-width="1" stroke="black" d="M55 67 L54 68 L54 69 L54 70 L52 71 L53 72 L53 72 L54 71 L54 70 L54 69 L55 68 L55 67 Z" /><path stroke-width="1" stroke="black" d="M58 67 L58 68 L57 69 L57 70 L56 71 L56 72 L56 72 L60 71 L57 70 L57 69 L59 68 L58 67 Z" /><path stroke-width="1" stroke="black" d="M66 67 L65 68 L64 69 L64 70 L64 71 L60 72 L63 72 L65 71 L65 70 L65 69 L66 68 L68 67 Z" /><path stroke-width="1" stroke="black" d="M71 67 L70 68 L70 69 L70 70 L70 71 L70 72 L74 72 L70 71 L70 70 L70 69 L71 68 L73 67 Z" /><path stroke-width="1" stroke="black" d="M76 67 L76 68 L76 69 L76 70 L76 71 L76 72 L77 72 L79 71 L81 70 L78 69 L77 68 L77 67 Z" /><path stroke-width="1" stroke="black" d="M81 67 L80 68 L80 69 L81 69 L81 68 L81 67 Z" /><path stroke-width="1" stroke="black" d="M48 68 L48 69 L48 69 L48 68 Z" /><path stroke-width="1" stroke="black" d="M73 68 L74 69 L74 70 L74 71 L74 71 L74 70 L74 69 L74 68 Z" /><path stroke-width="1" stroke="black" d="M28 69 L28 70 L28 70 L28 69 Z" /><path stroke-width="1" stroke="black" d="M59 69 L59 70 L60 70 L59 69 Z" /><path stroke-width="1" stroke="black" d="M81 71 L81 72 L81 72 L81 71 Z" /></svg>